<svg xmlns="http://www.w3.org/2000/svg" viewBox="0 0 178.24 55.66"><defs><style>.cls-1{fill:#9fc405;}.cls-1,.cls-2{fill-rule:evenodd;}.cls-2{fill:#fff;}.cls-3{fill:none;stroke:#627203;strokeLinecap:round;strokeWidth:4.3px;}.cls-4{fill:#627203;}</style></defs><title>greenify-menu</title><g id="Layer_2" data-name="Layer 2"><g id="Layer_1-2" data-name="Layer 1"><path id="path5106" class="cls-1" d="M33.58,49c-10.28-.91-5.47-7.7-8.4-11.46C31.22,38.25,37.88,39.53,33.58,49Z"/><path id="path5108" class="cls-2" d="M33.58,49a1.14,1.14,0,0,1-.36,0c-.13-.35-.39-1-.76-1.69-.45-.93-1.05-2.1-1.76-3.3-1.42-2.4-3.25-5-5.09-6.17,1.9,1.1,3.83,3.59,5.35,5.94C31.71,44.9,32.37,46,32.87,47c.41.72.71,1.3.89,1.64A1.76,1.76,0,0,1,33.58,49Z"/><path id="path5110" class="cls-2" d="M32.41,46.5l-.12,0A6.45,6.45,0,0,0,32.53,43a16.15,16.15,0,0,0-1.08-2.77,17.15,17.15,0,0,1,1.21,2.72,6.45,6.45,0,0,1-.13,3.64l-.12,0Z"/><path id="path5112" class="cls-2" d="M30.36,43.25A3.48,3.48,0,0,1,28,42.18a19.64,19.64,0,0,1-1.6-2,21.21,21.21,0,0,0,1.66,1.91,3.29,3.29,0,0,0,2.32.94Z"/><path id="path5114" class="cls-3" d="M40.61,6.07a25,25,0,0,0-36.84,30,25.25,25.25,0,0,0,5.1,8.19,24.92,24.92,0,0,0,11.35,6.93,24.13,24.13,0,0,0,13.27-.07,12.87,12.87,0,0,0,4.66-2.3,6.84,6.84,0,0,0,2.56-4.42,9.31,9.31,0,0,0-1.37-5.19A25.55,25.55,0,0,1,37,34.31a9,9,0,0,1,1.1-7.25"/><path id="path5120" class="cls-1" d="M39.75,24.24c8.52-.75,5-6.55,7.66-9.74C42.4,15.1,36.83,16.17,39.75,24.24Z"/><path id="path5122" class="cls-2" d="M39.75,24.24l.3,0c.13-.29.39-.8.73-1.44s1-1.78,1.67-2.8A18.73,18.73,0,0,1,47,14.73c-1.64.93-3.38,3.05-4.79,5-.7,1-1.31,2-1.78,2.74-.38.61-.67,1.1-.84,1.39A1.5,1.5,0,0,0,39.75,24.24Z"/><path id="path5124" class="cls-2" d="M40.88,22.13l.1,0a5.51,5.51,0,0,1,0-3,15.29,15.29,0,0,1,1.07-2.36,14.84,14.84,0,0,0-1.17,2.32,5.65,5.65,0,0,0-.14,3.1Z"/><path id="path5126" class="cls-2" d="M42.78,19.36a3,3,0,0,0,2-.9,18.83,18.83,0,0,0,1.45-1.69,18.93,18.93,0,0,1-1.49,1.62,2.92,2.92,0,0,1-2,.8Z"/><path id="path5128" class="cls-3" d="M25.49,28.89a6.12,6.12,0,0,1,4.22-3.65,9.12,9.12,0,0,1,4.79.39c1.54.49,3,1.18,4.56,1.67a12.37,12.37,0,0,0,4.51.65,7.58,7.58,0,0,0,4.24-1.54,6.33,6.33,0,0,0,2.1-3.13"/><path class="cls-4" d="M62.84,22.31a2,2,0,0,1,1.54.66,2.14,2.14,0,0,1,0,3.09,2.1,2.1,0,0,1-1.54.64h0a5.39,5.39,0,0,0-5.36,5.36V44a2.22,2.22,0,0,1-.64,1.57A2.2,2.2,0,0,1,53.06,44V24.47a2.08,2.08,0,0,1,.64-1.55,2.11,2.11,0,0,1,1.57-.65,2,2,0,0,1,1.35.49A2.18,2.18,0,0,1,57.4,24a9.38,9.38,0,0,1,5.41-1.67Z"/><path class="cls-4" d="M86.55,32.06a4.27,4.27,0,0,1-.6,2.21,4.12,4.12,0,0,1-3.78,2.18l-10.9,0a5.36,5.36,0,0,0,5.37,5.37h.16a5.11,5.11,0,0,0,4.34-2.23,2,2,0,0,1,2.46-.75A2,2,0,0,1,85,40.27a2.11,2.11,0,0,1-.32,2,9.27,9.27,0,0,1-7.86,4h-.16a9.77,9.77,0,0,1-9.75-9.66v-4.5a9.28,9.28,0,0,1,2.86-6.86,9.38,9.38,0,0,1,6.89-2.86h.16a9.35,9.35,0,0,1,6.94,2.9,9.72,9.72,0,0,1,2.09,3.17,9,9,0,0,1,.56,2l.16.82Zm-15.28,0H82.15a5.37,5.37,0,0,0-1.57-3.8,5.18,5.18,0,0,0-3.78-1.57h-.16a5.36,5.36,0,0,0-5.37,5.34Z"/><path class="cls-4" d="M109.5,32.06a4.18,4.18,0,0,1-.61,2.21,4.1,4.1,0,0,1-3.77,2.18l-10.9,0a5.36,5.36,0,0,0,5.37,5.37h.16a5.12,5.12,0,0,0,4.34-2.23,2,2,0,0,1,2.46-.75,2,2,0,0,1,1.38,1.41,2.09,2.09,0,0,1-.33,2,9.25,9.25,0,0,1-7.85,4h-.16a9.77,9.77,0,0,1-9.75-9.66v-4.5a9.76,9.76,0,0,1,9.75-9.72h.16a9.36,9.36,0,0,1,6.94,2.9,9.69,9.69,0,0,1,2.08,3.17,8.55,8.55,0,0,1,.57,2l.16.82Zm-15.28,0h10.87a5.33,5.33,0,0,0-1.57-3.8,5.18,5.18,0,0,0-3.77-1.57h-.16a5.36,5.36,0,0,0-5.37,5.34Z"/><path class="cls-4" d="M123.16,22.24A9.76,9.76,0,0,1,132.91,32V44a2.15,2.15,0,0,1-.65,1.57,2.22,2.22,0,0,1-3.1,0,2.21,2.21,0,0,1-.63-1.57V32a5.41,5.41,0,0,0-5.37-5.37H123A5.38,5.38,0,0,0,117.63,32V44a2.21,2.21,0,0,1-.63,1.57,2.16,2.16,0,0,1-1.55.63,2.15,2.15,0,0,1-2.2-2.2V24.42a2.15,2.15,0,0,1,2.2-2.18,2,2,0,0,1,2.11,1.67A9.52,9.52,0,0,1,123,22.24Z"/><path class="cls-4" d="M140.88,19.45a2.34,2.34,0,0,1-1.73.73,2.49,2.49,0,0,1-2.49-2.46,2.49,2.49,0,0,1,2.49-2.49,2.49,2.49,0,0,1,2.46,2.49A2.34,2.34,0,0,1,140.88,19.45Zm-3.3,26.14A2.21,2.21,0,0,1,137,44V24.49a2.09,2.09,0,0,1,.63-1.54,2.22,2.22,0,0,1,3.12,0,2.09,2.09,0,0,1,.63,1.54V44a2.21,2.21,0,0,1-.63,1.57,2.25,2.25,0,0,1-3.12,0Z"/><path class="cls-4" d="M155.58,17.55a5.39,5.39,0,0,0-5.35,5h3.52a2.08,2.08,0,0,1,1.55.66,2.11,2.11,0,0,1,.63,1.55,2.2,2.2,0,0,1-2.18,2.2h-3.54V44a2.21,2.21,0,0,1-.63,1.57,2.25,2.25,0,0,1-3.12,0,2.21,2.21,0,0,1-.63-1.57V22.92A9.38,9.38,0,0,1,148.69,16a9.36,9.36,0,0,1,6.89-2.86h0a2.19,2.19,0,0,1,1.55,3.75,2.11,2.11,0,0,1-1.55.63Z"/><path class="cls-4" d="M176.81,22.57a2.13,2.13,0,0,1,1.24,1.15,2.25,2.25,0,0,1,0,1.69l-11,28.85a2.16,2.16,0,0,1-1.17,1.22,2.13,2.13,0,0,1-1.66,0A2.18,2.18,0,0,1,163,52.69L166.34,44l-7.06-18.54a2.2,2.2,0,0,1,.07-1.69,2.07,2.07,0,0,1,1.22-1.15,2,2,0,0,1,1.66.05,2,2,0,0,1,1.15,1.22l5.32,14,5.3-14a2.12,2.12,0,0,1,1.15-1.22A2,2,0,0,1,176.81,22.57Z"/></g></g></svg>