<svg width="20" height="20" viewBox="0 0 20 20" xmlns="http://www.w3.org/2000/svg"><title>Afternoon</title><g id="Page-1" fill="none" fill-rule="evenodd"><g id="Availability-dropdown" transform="translate(-211 -52)" fill="#fff" fill-rule="nonzero"><g id="Time" transform="translate(16 16)"><g transform="translate(0 26)" id="Block"><g id="3-block" transform="translate(164)"><g id="baseline-brightness_7-24px" transform="translate(31 10)"><path d="M10 5a5 5 0 1 1 0 10 5 5 0 0 1 0-10zm0 2a3 3 0 1 0 0 6 3 3 0 0 0 0-6zM9 0h2v3H9V0zm0 17h2v3H9v-3zm-9-6V9h3v2H0zm17 0V9h3v2h-3zm-1.293-5.293l-1.414-1.414 2-2 1.414 1.414-2 2zm-1.414 10l1.414-1.414 2 2-1.414 1.414-2-2zm-10-1.414l1.414 1.414-2 2-1.414-1.414 2-2zm1.414-10L4.293 5.707l-2-2 1.414-1.414 2 2z" id="Rectangle-4"></path></g></g></g></g></g></g></svg>