<svg  width="20" height="20" viewBox="0 0 20 20" xmlns="http://www.w3.org/2000/svg"><title>Late-afternoon</title><g id="Page-1" fill="none" fill-rule="evenodd"><g id="Availability-dropdown" transform="translate(-292 -52)" fill="#3BB3BD" fill-rule="nonzero"><g id="Time" transform="translate(16 16)"><g transform="translate(0 26)" id="Block"><g id="4-block" transform="translate(245)"><g id="baseline-brightness_7-24px" transform="translate(31 10)"><path d="M10 5a5 5 0 1 1 0 10 5 5 0 0 1 0-10zm0 2a3 3 0 1 0 0 6 3 3 0 0 0 0-6zM9 1h2v2H9V1zm0 16h2v2H9v-2zm-8-6V9h2v2H1zm16 0V9h2v2h-2zm-1.293-5.293l-1.414-1.414 1.414-1.414 1.414 1.414-1.414 1.414zm-1.414 10l1.414-1.414 1.414 1.414-1.414 1.414-1.414-1.414zm-10-1.414l1.414 1.414-1.414 1.414-1.414-1.414 1.414-1.414zm1.414-10L4.293 5.707 2.879 4.293l1.414-1.414 1.414 1.414z" id="Rectangle-4"></path></g></g></g></g></g></g></svg>