<svg  width="20" height="20" viewBox="0 0 20 20" xmlns="http://www.w3.org/2000/svg"><title>Evening</title><g id="Page-1" fill="none" fill-rule="evenodd"><g id="Availability-dropdown" transform="translate(-48 -131)" fill="#3BB3BD" fill-rule="nonzero"><g id="Time" transform="translate(16 16)"><g transform="translate(0 105)" id="Block"><g id="1-block"><g id="baseline-brightness_7-24px" transform="translate(32 10)"><path d="M13.465 14A3.998 3.998 0 0 0 10 12c-1.48 0-2.773.804-3.465 2h6.93zM4.34 14a6.002 6.002 0 0 1 11.318 0H20v2H0v-2h4.341zM9 6h2v2H9V6zm6.793 1.793l1.414 1.414-1.5 1.5-1.414-1.414 1.5-1.5zm-13 1.414l1.414-1.414 1.5 1.5-1.414 1.414-1.5-1.5z" id="Combined-Shape"></path></g></g></g></g></g></g></svg>