<svg xmlns="http://www.w3.org/2000/svg" width="28" height="28" viewBox="0 0 28 28">
                                        <path d="M498,200a4,4,0,0,1,4-4h20a4,4,0,0,1,4,4v20a4,4,0,0,1-4,4H502a4,4,0,0,1-4-4Z" transform="translate(-498 -196)" fill="#fff"></path>
                                        <path d="M513.73,219v-7.754h2.6l.39-3.023h-2.99v-1.93c0-.874.243-1.47,1.5-1.47h1.6v-2.7A21.335,21.335,0,0,0,514.5,202a3.641,3.641,0,0,0-3.887,3.994v2.23H508v3.022h2.61V219Z" transform="translate(-498 -196)" fill="#3b5998"></path>
                                    </svg>