<svg width="40" height="40" fill="none" xmlns="http://www.w3.org/2000/svg" class="sc-bXGyLb dYEtVu"><path fill-rule="evenodd" clip-rule="evenodd" d="M.881 21.583c-1.175-1.061-1.175-2.89 0-3.892l.764-.648c.822-.767 1.116-1.946.704-2.949l-.41-.944c-.588-1.474.176-3.125 1.703-3.538l.998-.295A2.584 2.584 0 006.52 6.96l.059-1.003A2.588 2.588 0 019.163 3.48c.176 0 .294 0 .47.06l.998.176c.177 0 .294.06.47.06.94 0 1.821-.532 2.291-1.357l.47-.885C14.332.531 15.212 0 16.152 0c.53 0 1.058.177 1.528.472l.822.59c.47.353.999.471 1.527.471.529 0 1.058-.177 1.527-.472l.823-.59c.47-.353.998-.471 1.527-.471.94 0 1.82.472 2.29 1.356l.47.885c.47.825 1.352 1.356 2.291 1.356.177 0 .294 0 .47-.059l.999-.177c.176 0 .294-.059.47-.059A2.588 2.588 0 0133.48 5.78l.059 1.003a2.584 2.584 0 001.88 2.358l.998.295c1.527.413 2.29 2.064 1.703 3.539l-.41.943c-.412 1.003-.177 2.241.645 2.949l.764.707c1.175 1.062 1.175 2.89 0 3.892l-.764.65c-.822.766-1.116 1.945-.704 2.948l.41.943c.588 1.474-.175 3.126-1.703 3.538l-1.057.531a2.584 2.584 0 00-1.88 2.359l-.058 1.003a2.588 2.588 0 01-2.585 2.476c-.176 0-.293 0-.47-.059l-.998-.177c-.176 0-.294-.059-.47-.059-.94 0-1.82.531-2.29 1.357l-.47.884c-.47.885-1.352 1.357-2.291 1.357-.53 0-1.058-.177-1.528-.472l-.822-.59c-.47-.354-.998-.472-1.527-.472-.529 0-1.057.177-1.527.472l-.823.59c-.47.354-.998.472-1.527.472-.94 0-1.82-.472-2.29-1.357l-.47-.884c-.47-.826-1.351-1.357-2.291-1.357-.176 0-.294 0-.47.06l-.999.176c-.176 0-.293.06-.47.06a2.588 2.588 0 01-2.584-2.477v-1.062a2.584 2.584 0 00-1.88-2.359l-.998-.295c-1.527-.412-2.29-2.064-1.703-3.538l.41-.943c.412-1.003.177-2.241-.645-2.949l-.764-.708z" fill="#3BB3BD"></path><path fill-rule="evenodd" clip-rule="evenodd" d="M11.847 14.009c-.073 2.497-.021 4.99.315 7.47.26 1.922.973 3.636 2.348 5.04.843.86 1.826 1.532 2.859 2.14.832.489 1.69.928 2.558 1.35.077.037.146.065.24.018 1.71-.844 3.367-1.771 4.807-3.04 1.33-1.17 2.143-2.656 2.598-4.352.363-1.354.496-2.74.568-4.134.034-.657.043-1.314.041-1.972a52.277 52.277 0 00-.039-2.466c-.007-.165-.06-.211-.22-.23-.687-.083-1.342-.273-1.935-.644-.695-.435-1.023-1.116-1.24-1.866-.072-.246-.12-.5-.164-.753-.018-.107-.05-.155-.166-.173-1.329-.213-2.663-.364-4.01-.393-1.607-.033-3.196.13-4.78.38-.192.03-.22.125-.242.274-.11.73-.324 1.421-.785 2.014-.426.546-1.027.803-1.667.989-.302.087-.61.153-.925.179-.111.009-.158.045-.161.169zm8.014 5.712c.007-.971.006-1.942.005-2.913v-.97-.943c0-.988.001-1.975-.004-2.963 0-.157.037-.208.202-.205 1.095.018 2.183.119 3.264.29.429.067.43.072.51.49l.001.004c.222 1.15.825 1.96 2.006 2.257l.137.037c.156.043.313.086.47.089.249.005.28.127.287.33.043 1.502.048 3.003-.068 4.502-.014.188-.08.233-.26.232-2.104-.006-4.207-.006-6.31 0-.186.001-.242-.046-.24-.237zm-6.262.258c-.172 0-.217.046-.201.217.135 1.45.395 2.859 1.205 4.11a7.484 7.484 0 001.732 1.857c1.074.83 2.268 1.453 3.516 2.072v-.254-1.494c0-2.091-.001-4.182.005-6.273 0-.202-.06-.243-.249-.242-2.003.01-4.005.01-6.008.007z" fill="#FFF"></path></svg>