<svg width="20" height="20" viewBox="0 0 20 20" xmlns="http://www.w3.org/2000/svg"><title>Late-morning</title><g id="Page-1" fill="none" fill-rule="evenodd"><g id="Availability-dropdown" transform="translate(-129 -52)" fill="#3BB3BD" fill-rule="nonzero"><g id="Time" transform="translate(16 16)"><g transform="translate(0 26)" id="Block"><g id="2-block-•-Active" transform="translate(82)"><g id="baseline-brightness_7-24px" transform="translate(31 10)"><path d="M5.416 15a5 5 0 1 1 9.168 0H20v2H0v-2h5.416zm6.82 0a3 3 0 1 0-4.473 0h4.474zM9 4h2v2H9V4zm6.793 1.793l1.414 1.414-1.5 1.5-1.414-1.414 1.5-1.5zm-13 1.414l1.414-1.414 1.5 1.5-1.414 1.414-1.5-1.5zM19 11v2h-2v-2h2zM1 13v-2h2v2H1z" id="Combined-Shape"></path></g></g></g></g></g></g></svg>