<svg viewBox="0 0 16 16" xmlns="http://www.w3.org/2000/svg" width="13" height="13" fill="#50bf16" class="sc-cQFLBn ccilFE"><mask id="lock_svg__a" maskUnits="userSpaceOnUse" x="0" y="0" width="16" height="16"><path fill-rule="evenodd" clip-rule="evenodd" d="M0 0h16v16H0V0z" fill="#fff"></path></mask><g mask="url(#lock_svg__a)"><path fill-rule="evenodd" clip-rule="evenodd" d="M11.333 5.333H12c.733 0 1.333.6 1.333 1.334v6.666c0 .734-.6 1.334-1.333 1.334H4c-.733 0-1.333-.6-1.333-1.334V6.667c0-.734.6-1.334 1.333-1.334h.667V4a3.335 3.335 0 016.666 0v1.333zm-2 4.667c0 .733-.6 1.333-1.333 1.333s-1.333-.6-1.333-1.333.6-1.333 1.333-1.333 1.333.6 1.333 1.333zm-3.4-6c0-1.14.927-2.067 2.067-2.067 1.14 0 2.067.927 2.067 2.067v1.333H5.933V4zM4 13.333h8V6.667H4v6.666z"></path></g></svg>